<svg xmlns="http://www.w3.org/2000/svg" viewBox="0 0 700 700" class="c-section-overview-image-svg">
    <g transform="translate(0,700) scale(0.1,-0.1)">
    <path d="M5154 6975 c-14 -15 -37 -24 -75 -29 -30 -4 -88 -18 -129 -30 -74
    -24 -148 -44 -265 -72 -33 -8 -80 -22 -105 -30 -25 -9 -85 -24 -135 -33 -77
    -15 -96 -15 -140 -4 -131 35 -270 24 -362 -28 -80 -46 -156 -138 -189 -228
    -40 -109 -41 -178 -2 -277 16 -43 40 -91 52 -107 38 -51 105 -117 117 -117 7
    0 33 -12 58 -27 44 -27 52 -28 176 -28 l130 1 65 36 c36 20 91 64 123 98 60
    62 89 80 133 80 13 0 55 11 92 24 37 12 89 26 117 30 27 5 67 15 88 23 36 15
    40 15 57 -3 17 -17 77 -124 117 -209 8 -16 20 -41 28 -55 8 -14 22 -41 30 -60
    9 -19 20 -42 25 -50 5 -8 46 -88 92 -178 46 -90 92 -180 102 -200 10 -20 21
    -55 23 -77 4 -34 -1 -48 -33 -95 l-38 -55 0 -110 c0 -108 0 -111 34 -165 36
    -57 108 -130 129 -130 7 0 23 -11 36 -25 l25 -24 0 -2113 c0 -1312 -4 -2119
    -10 -2128 -7 -11 -44 -18 -145 -26 -112 -9 -140 -15 -158 -31 -12 -11 -29 -24
    -38 -29 -9 -5 -34 -31 -55 -59 l-39 -50 0 -101 c0 -98 1 -101 35 -152 19 -29
    54 -64 78 -77 23 -14 42 -32 42 -40 0 -13 56 -15 399 -15 391 0 399 0 404 20
    3 11 18 26 34 33 91 38 137 168 109 301 -13 66 -18 73 -76 127 -70 65 -80 68
    -237 74 -87 3 -110 8 -120 22 -10 13 -13 424 -13 2032 0 1109 3 2026 6 2039 6
    22 44 32 44 11 0 -11 80 -177 100 -209 5 -8 16 -31 25 -50 8 -19 19 -42 25
    -50 5 -8 16 -31 25 -50 8 -19 22 -46 30 -60 8 -14 21 -41 30 -60 9 -19 31 -57
    51 -83 34 -47 36 -48 82 -45 44 3 48 6 70 46 22 40 23 46 12 95 -7 29 -18 59
    -26 67 -7 8 -22 35 -33 60 -11 25 -27 56 -35 70 -9 14 -23 41 -31 60 -23 50
    -54 113 -65 130 -6 8 -17 31 -25 50 -9 19 -21 44 -27 55 -6 11 -31 58 -56 105
    -51 98 -53 139 -9 203 30 45 42 117 35 222 -6 92 -37 147 -122 220 -33 29
    -170 75 -221 75 -27 0 -39 7 -63 38 -16 20 -34 52 -41 71 -6 19 -17 42 -24 50
    -8 9 -20 32 -27 51 -7 19 -18 42 -25 50 -6 8 -56 105 -110 215 -54 110 -106
    211 -116 225 -9 14 -22 42 -29 64 -10 31 -10 40 1 50 13 12 202 76 224 76 18
    0 99 60 126 93 14 18 37 57 49 87 13 30 30 62 39 72 9 9 61 32 116 50 97 34
    100 36 109 71 6 23 6 51 0 74 -7 30 -16 38 -47 49 -32 11 -51 11 -115 -1 -112
    -22 -139 -20 -168 12 -13 14 -42 34 -64 44 -22 10 -40 25 -40 34 0 13 -18 15
    -122 14 -114 -1 -125 -3 -144 -24z m213 -205 c35 -21 46 -48 41 -100 -2 -27
    -12 -40 -50 -65 -25 -18 -66 -35 -90 -39 -23 -3 -79 -17 -123 -31 -44 -13
    -108 -31 -142 -40 -35 -8 -91 -22 -125 -31 -35 -8 -98 -26 -140 -40 -86 -27
    -130 -30 -146 -11 -17 20 -45 109 -44 140 1 41 17 55 70 63 26 3 70 15 97 25
    28 11 77 24 110 30 33 5 83 18 110 28 28 10 70 22 95 26 25 4 68 16 97 27 109
    40 194 47 240 18z m-1114 -196 c34 -17 64 -43 85 -74 29 -41 32 -54 32 -116 0
    -60 -4 -77 -29 -115 -38 -61 -72 -86 -135 -100 -85 -19 -148 1 -214 67 l-54
    53 4 93 c3 88 5 96 34 132 17 20 58 51 90 67 70 36 109 34 187 -7z m1452
    -1294 c40 -25 79 -102 70 -137 -9 -37 -47 -91 -73 -103 -39 -17 -107 -12 -136
    11 -73 58 -75 160 -3 221 40 34 95 37 142 8z m140 -4929 c92 -1 102 -3 128
    -26 34 -32 34 -59 2 -90 l-24 -25 -311 0 c-297 0 -311 1 -330 20 -21 21 -26
    65 -11 88 22 36 89 40 546 33z"></path>
    <path d="M1969 6719 c-32 -12 -93 -100 -110 -160 -7 -24 -21 -57 -31 -74 -10
    -16 -18 -37 -18 -45 0 -8 -14 -42 -30 -75 -16 -33 -30 -67 -30 -76 0 -9 -11
    -37 -25 -63 -14 -26 -25 -52 -25 -59 0 -7 -14 -41 -30 -75 -17 -35 -30 -71
    -30 -80 0 -10 -12 -39 -25 -67 -14 -27 -25 -67 -25 -88 0 -40 42 -134 106
    -237 18 -30 40 -68 48 -85 8 -16 23 -41 34 -55 11 -14 25 -44 31 -65 7 -27 10
    -350 11 -991 0 -802 -2 -953 -14 -970 -13 -17 -32 -20 -183 -25 -139 -4 -175
    -9 -208 -25 -50 -24 -70 -59 -61 -105 14 -75 11 -74 236 -74 243 0 230 8 230
    -136 0 -86 3 -105 29 -161 59 -130 141 -168 362 -168 232 0 322 43 374 180 20
    52 25 84 25 156 0 134 -6 130 187 126 183 -3 193 -4 279 -43 89 -41 172 -125
    220 -225 35 -74 37 -83 38 -183 1 -97 -2 -112 -28 -171 -16 -36 -35 -72 -42
    -80 -7 -8 -30 -50 -52 -92 -31 -61 -41 -94 -46 -150 -9 -101 7 -221 38 -288
    14 -30 26 -65 26 -76 0 -12 8 -32 19 -45 10 -13 24 -42 31 -64 7 -22 19 -47
    26 -55 7 -9 21 -36 29 -60 9 -25 22 -54 29 -65 7 -11 21 -47 31 -80 9 -33 23
    -71 30 -85 7 -14 20 -97 29 -185 18 -176 41 -271 66 -285 19 -10 83 -4 110 10
    34 18 43 74 37 220 -4 75 -14 162 -23 195 -9 33 -24 89 -34 125 -19 71 -66
    193 -89 230 -20 33 -81 167 -81 179 0 7 -9 26 -21 42 -12 17 -19 40 -17 56 l3
    28 475 3 c532 3 500 7 500 -69 0 -21 9 -84 20 -141 11 -57 24 -157 30 -223 5
    -66 18 -165 29 -220 10 -55 22 -145 26 -200 3 -55 15 -143 25 -195 11 -52 24
    -153 30 -225 6 -71 18 -159 26 -194 8 -35 19 -120 25 -190 12 -144 42 -316 67
    -378 l17 -43 60 0 60 0 19 58 c12 39 16 72 12 98 -3 21 -11 93 -16 158 -6 66
    -17 147 -25 181 -8 34 -19 120 -25 191 -6 71 -19 174 -30 229 -10 55 -22 143
    -25 195 -4 52 -16 140 -26 195 -11 55 -24 155 -29 222 -5 67 -16 154 -25 195
    -9 40 -22 141 -30 223 -7 83 -21 184 -29 225 -9 41 -20 129 -26 196 -5 66 -16
    153 -25 193 -8 41 -22 141 -30 225 -8 83 -21 183 -29 222 -9 40 -20 128 -26
    195 -5 68 -19 170 -30 227 -23 117 -26 205 -7 220 6 5 57 12 112 14 97 5 102
    6 162 47 34 22 70 53 80 67 10 14 28 37 39 52 14 17 26 55 34 103 32 196 -55
    345 -234 401 -71 23 -72 23 -791 23 -703 0 -722 -1 -785 -21 -126 -40 -205
    -123 -236 -246 -37 -152 22 -291 163 -385 53 -35 61 -37 160 -42 136 -8 138
    -11 107 -168 -24 -120 -27 -122 -168 -89 -95 21 -140 26 -255 26 -133 0 -141
    1 -155 22 -14 20 -16 129 -15 983 0 711 4 968 12 990 11 28 37 72 114 198 18
    29 46 81 63 117 38 78 41 147 10 215 -11 24 -20 49 -20 56 0 7 -11 35 -24 63
    -14 29 -28 65 -32 81 -4 17 -11 35 -16 42 -9 11 -48 107 -89 218 -10 28 -27
    68 -39 90 -11 21 -20 46 -20 53 0 22 -55 114 -85 142 -27 25 -27 25 -258 27
    -135 1 -243 -2 -258 -8z m391 -214 c17 -16 37 -50 44 -75 8 -25 23 -63 35 -85
    11 -22 21 -47 21 -56 0 -9 11 -36 24 -61 13 -25 27 -60 31 -79 4 -19 15 -45
    25 -59 10 -14 23 -45 30 -69 6 -24 20 -60 31 -80 28 -53 25 -117 -9 -167 -15
    -23 -38 -60 -52 -83 -42 -71 -93 -146 -104 -153 -6 -4 -105 -8 -221 -8 -115 0
    -215 4 -220 8 -17 11 -75 89 -75 99 0 5 -13 27 -30 49 -16 21 -30 44 -30 50 0
    5 -11 25 -25 44 -19 25 -25 46 -25 82 0 32 9 66 25 98 14 27 25 55 25 62 0 7
    11 34 25 60 14 26 25 53 25 60 0 7 14 40 30 73 16 33 30 67 30 75 0 8 11 35
    24 60 13 25 27 61 31 80 7 36 47 87 77 99 9 3 64 6 123 5 102 0 106 -1 135
    -29z m12 -1171 c29 -9 38 -70 35 -241 -2 -135 -5 -165 -18 -179 -14 -13 -41
    -16 -170 -16 -85 1 -159 1 -166 1 -23 2 -33 67 -33 217 0 145 8 201 32 215 12
    8 296 11 320 3z m25 -671 c13 -46 9 -381 -4 -394 -8 -8 -65 -11 -179 -11 -151
    1 -170 3 -182 19 -10 14 -13 59 -10 203 2 102 7 191 11 198 6 9 54 12 182 12
    l175 0 7 -27z m2154 -536 c80 -54 100 -131 51 -201 -48 -69 -25 -67 -801 -67
    -790 0 -765 -2 -813 75 -16 23 -28 53 -28 66 0 38 32 91 73 121 l40 29 722 0
    722 0 34 -23z m-2156 -101 c14 -21 16 -51 11 -212 -4 -135 -9 -190 -18 -196
    -7 -4 -88 -8 -180 -8 -155 0 -168 1 -178 19 -6 12 -10 95 -10 202 0 156 2 185
    17 201 14 16 34 18 179 18 162 0 164 0 179 -24z m1748 -378 c23 -17 54 -168
    67 -321 5 -67 18 -169 29 -227 10 -58 22 -145 26 -195 3 -49 15 -137 25 -195
    11 -58 24 -160 30 -226 5 -67 12 -128 15 -136 3 -7 -1 -22 -9 -33 -14 -19 -29
    -20 -450 -22 -257 -2 -446 1 -461 7 -30 12 -32 38 -5 73 74 93 140 294 134
    404 -7 132 -59 279 -137 390 l-29 42 12 152 c6 83 18 177 26 208 26 97 0 91
    379 91 249 0 335 -3 348 -12z m-1752 -265 c11 -12 14 -57 14 -190 l0 -175 -33
    -29 c-32 -29 -34 -29 -153 -29 -192 0 -199 9 -199 244 0 209 -13 196 194 196
    140 0 166 -2 177 -17z"></path>
    <path d="M1037 3172 c-16 -9 -40 -38 -53 -64 -13 -26 -28 -49 -33 -52 -5 -3
    -15 -30 -22 -58 -6 -29 -18 -68 -26 -87 -8 -18 -17 -70 -20 -116 -5 -72 -2
    -95 21 -172 27 -89 71 -188 112 -253 12 -19 30 -60 40 -91 16 -53 16 -61 0
    -122 -9 -37 -16 -75 -16 -85 0 -10 -11 -39 -23 -63 -13 -24 -27 -57 -31 -73
    -4 -16 -18 -45 -32 -65 -13 -19 -24 -41 -24 -49 0 -7 -13 -38 -30 -69 -16 -31
    -30 -62 -30 -69 0 -7 -11 -34 -25 -60 -14 -26 -25 -57 -25 -69 0 -12 -12 -58
    -27 -101 -27 -78 -27 -83 -27 -329 0 -217 2 -256 18 -295 10 -25 24 -67 31
    -95 41 -158 195 -366 341 -462 68 -45 143 -91 164 -99 8 -4 44 -19 80 -35 36
    -15 81 -31 100 -35 19 -3 48 -13 64 -21 17 -9 73 -21 125 -29 97 -13 151 -30
    151 -45 0 -5 164 -9 369 -9 312 0 370 2 374 14 8 20 70 36 140 36 52 0 59 -3
    69 -25 10 -22 17 -25 67 -25 l56 1 26 52 c26 50 32 54 148 114 121 62 249 150
    306 209 80 84 161 205 176 265 11 40 10 50 -7 85 -16 33 -25 40 -53 42 -62 6
    -101 -6 -112 -36 -30 -79 -184 -255 -269 -309 -49 -30 -194 -103 -206 -103 -5
    0 -27 -9 -49 -20 -22 -11 -46 -20 -55 -20 -9 0 -59 -11 -111 -25 -63 -17 -144
    -29 -249 -36 -195 -14 -560 -4 -650 17 -36 9 -103 24 -150 34 -121 26 -279 94
    -377 161 -102 71 -216 209 -248 300 -8 21 -20 48 -28 61 -18 28 -50 248 -49
    333 1 95 32 306 52 351 10 23 21 57 25 75 4 19 18 54 30 79 13 25 38 77 55
    115 18 39 42 90 55 115 12 25 26 58 29 75 4 16 16 49 27 73 43 93 45 323 3
    387 -19 29 -50 86 -100 185 -37 74 -38 77 -38 190 -1 114 -1 116 38 193 22 42
    45 82 53 88 7 6 13 29 13 50 0 34 -5 42 -40 64 -46 29 -84 31 -123 7z"></path>
    <path d="M2097 2415 c-90 -18 -171 -73 -258 -172 -9 -10 -31 -49 -50 -88 -31
    -64 -34 -80 -37 -176 -4 -104 -3 -109 32 -188 19 -44 44 -90 55 -101 63 -69
    81 -85 130 -118 39 -26 80 -41 152 -58 l100 -22 95 24 c65 16 112 34 147 58
    81 54 146 125 162 176 4 14 17 41 29 60 18 31 21 50 21 155 -1 117 -1 122 -38
    198 -20 42 -41 77 -46 77 -5 0 -12 8 -16 19 -5 18 -68 71 -138 117 -41 26
    -164 55 -232 53 -22 0 -71 -7 -108 -14z m231 -214 c98 -49 141 -122 142 -236
    0 -111 -40 -177 -143 -232 -80 -44 -144 -45 -225 -4 -111 56 -166 169 -141
    290 19 92 53 137 139 182 77 39 150 40 228 0z"></path>
    <path d="M1914 1080 c-34 -13 -64 -59 -64 -97 0 -45 24 -89 52 -97 38 -10 595
    -7 622 4 49 18 72 103 40 148 -34 49 -53 52 -351 51 -153 0 -288 -4 -299 -9z"></path></g>
</svg>