<svg xmlns="http://www.w3.org/2000/svg" viewBox="0 0 700 700" class="c-section-overview-image-svg">
    <g transform="translate(0,700) scale(0.1,-0.1)">
        <path d="M3456 6464 c-53 -19 -62 -28 -75 -77 -9 -32 -8 -53 2 -91 11 -43 18
        -51 47 -62 68 -24 150 -11 171 28 23 43 28 81 18 124 -13 51 -24 61 -81 78
        -35 11 -50 11 -82 0z"></path>
        <path d="M2820 6434 c-30 -7 -104 -21 -165 -29 -60 -8 -134 -22 -164 -31 -30
        -8 -89 -22 -132 -29 -43 -8 -91 -20 -106 -29 -16 -8 -58 -20 -93 -26 -35 -6
        -80 -20 -100 -30 -20 -10 -54 -22 -75 -26 -22 -3 -60 -17 -85 -30 -25 -13 -54
        -24 -65 -24 -11 0 -47 -14 -80 -30 -33 -17 -66 -30 -73 -30 -8 0 -26 -9 -41
        -19 -14 -10 -45 -24 -68 -30 -23 -6 -45 -16 -48 -22 -4 -5 -30 -21 -58 -34
        -29 -14 -59 -29 -67 -35 -8 -5 -31 -16 -50 -25 -19 -8 -73 -39 -120 -69 -47
        -30 -105 -67 -130 -82 -25 -15 -67 -46 -95 -69 -27 -22 -75 -58 -105 -80 -30
        -22 -66 -48 -79 -60 -52 -43 -328 -325 -354 -362 -16 -21 -47 -63 -69 -93 -22
        -30 -44 -57 -49 -60 -4 -3 -15 -21 -24 -40 -9 -19 -31 -60 -50 -90 -62 -99
        -160 -309 -169 -362 -4 -20 -15 -56 -26 -80 -10 -24 -23 -79 -29 -123 -8 -54
        -18 -86 -31 -100 -19 -20 -20 -36 -20 -303 0 -175 4 -282 10 -282 16 0 31 -40
        41 -109 10 -69 48 -198 80 -266 10 -22 25 -58 33 -80 8 -22 31 -69 50 -105 19
        -36 42 -80 51 -98 9 -19 35 -61 58 -94 23 -33 61 -88 84 -122 57 -82 68 -95
        211 -243 67 -71 125 -137 128 -149 3 -11 -4 -48 -15 -82 -12 -34 -21 -73 -21
        -86 0 -14 -11 -58 -24 -98 -13 -40 -27 -93 -31 -118 -3 -25 -17 -77 -31 -117
        -13 -39 -24 -83 -24 -97 0 -15 -11 -57 -24 -95 -13 -37 -27 -92 -31 -122 -4
        -30 -15 -75 -25 -100 -10 -25 -21 -67 -25 -95 -4 -27 -18 -80 -31 -118 -25
        -73 -31 -135 -14 -166 17 -31 103 -87 160 -103 54 -16 110 -56 110 -80 0 -28
        -24 -93 -41 -116 -11 -13 -19 -31 -19 -41 0 -9 -11 -39 -25 -66 -14 -27 -25
        -61 -25 -76 0 -41 48 -106 89 -120 45 -15 66 -13 114 8 32 15 44 29 73 91 19
        40 41 90 49 112 18 53 62 121 78 121 6 0 30 -12 52 -25 22 -14 47 -25 56 -25
        8 0 38 -11 65 -25 27 -14 56 -25 64 -25 32 0 101 59 141 121 23 35 50 76 61
        91 10 15 23 38 29 50 5 13 28 50 50 83 21 33 46 74 54 92 8 17 19 34 24 37 5
        3 18 25 30 48 12 24 35 63 51 88 16 25 41 65 55 90 40 71 128 212 153 248 29
        40 62 42 141 8 31 -13 83 -31 116 -39 145 -37 195 -50 280 -72 50 -13 117 -27
        150 -30 33 -4 97 -16 143 -26 46 -11 147 -24 225 -29 78 -6 189 -15 247 -22
        129 -15 413 -14 580 1 69 7 188 16 265 21 79 5 173 17 215 28 42 11 112 23
        155 27 44 4 103 16 130 26 28 10 92 25 144 33 101 16 111 14 181 -34 89 -62
        246 -164 290 -190 19 -11 46 -28 60 -39 14 -10 50 -35 80 -55 30 -20 66 -44
        80 -53 75 -49 104 -68 119 -78 34 -20 86 -54 116 -75 100 -69 121 -80 165 -80
        39 0 51 6 88 40 l42 39 0 524 0 523 38 36 c20 20 82 69 137 110 110 82 330
        293 421 404 123 150 261 355 279 414 4 14 16 37 26 52 11 14 19 33 19 41 0 8
        11 35 25 60 13 25 29 66 35 89 6 24 19 63 29 88 11 25 22 70 26 100 9 74 23
        117 40 124 13 4 15 51 15 291 0 267 -1 288 -19 313 -12 16 -26 65 -35 118 -9
        50 -24 110 -35 135 -12 24 -21 53 -21 63 0 10 -11 42 -24 70 -54 115 -119 243
        -141 281 -69 116 -68 116 -155 229 -25 32 -52 68 -60 80 -8 12 -34 40 -57 64
        -23 23 -48 52 -54 65 -9 16 -13 116 -13 357 l-1 335 -28 46 c-23 39 -35 49
        -72 58 -50 13 -155 -5 -228 -38 -23 -11 -60 -22 -82 -26 -22 -4 -57 -16 -77
        -26 -21 -11 -61 -24 -90 -30 -29 -7 -69 -20 -89 -31 -21 -10 -67 -21 -106 -24
        -62 -5 -73 -3 -123 24 -30 16 -66 33 -80 37 -14 4 -36 16 -49 26 -13 11 -31
        19 -40 19 -9 0 -43 13 -76 30 -33 16 -67 30 -75 30 -8 0 -38 11 -65 24 -28 12
        -68 26 -90 30 -21 4 -55 16 -75 26 -19 10 -61 23 -93 30 -33 6 -75 18 -94 27
        -20 8 -73 21 -119 29 -46 8 -102 21 -125 29 -23 9 -84 20 -136 26 -52 5 -115
        17 -141 25 -26 8 -94 17 -152 21 l-106 6 -42 -44 c-37 -39 -42 -50 -42 -91 0
        -41 5 -51 40 -88 40 -42 41 -42 149 -55 60 -8 127 -18 148 -24 21 -6 83 -17
        138 -25 56 -9 119 -22 140 -29 22 -8 71 -20 109 -26 38 -7 82 -19 97 -27 16
        -8 57 -21 91 -29 61 -14 186 -56 258 -86 19 -9 49 -20 65 -25 17 -5 30 -16 30
        -24 0 -18 -91 -64 -160 -81 -27 -6 -63 -19 -80 -27 -16 -8 -59 -23 -95 -33
        -81 -22 -181 -55 -240 -79 -25 -10 -65 -25 -90 -32 -41 -12 -47 -17 -67 -68
        l-22 -55 -1 -996 c0 -962 -1 -998 -19 -1020 -18 -23 -20 -23 -72 -9 -81 20
        -288 18 -369 -4 -36 -10 -90 -24 -120 -31 -77 -18 -169 -59 -240 -106 -70 -47
        -164 -139 -187 -183 -8 -17 -25 -41 -37 -54 -19 -22 -21 -35 -21 -151 0 -120
        1 -129 25 -161 90 -121 222 -204 349 -221 159 -20 386 -5 465 31 25 11 51 20
        59 20 17 0 148 67 198 101 50 35 147 137 170 179 68 128 69 141 69 901 0 409
        4 657 10 669 15 28 72 59 129 70 28 5 70 18 93 29 24 10 63 22 88 26 25 4 61
        15 80 25 19 10 59 23 88 29 29 6 72 20 95 30 23 10 62 22 87 26 25 4 61 15 80
        25 19 10 60 23 90 29 30 6 68 18 84 26 16 8 57 22 93 30 35 8 76 21 91 29 15
        8 46 17 67 21 22 4 66 18 97 31 43 19 72 24 110 22 l53 -3 0 -425 0 -425 -27
        -3 c-14 -2 -60 4 -102 12 -93 20 -171 20 -256 1 -36 -8 -99 -20 -140 -26 -41
        -6 -87 -20 -102 -30 -14 -11 -41 -22 -60 -25 -18 -4 -42 -15 -53 -24 -11 -10
        -38 -26 -60 -36 -22 -10 -78 -57 -125 -105 -102 -104 -131 -163 -137 -280 -4
        -69 -1 -83 25 -140 66 -141 196 -223 405 -254 117 -18 121 -18 266 3 136 20
        169 29 281 80 75 34 175 111 230 177 72 86 84 106 102 175 36 136 38 160 36
        736 -1 404 2 578 10 586 17 17 39 3 62 -39 12 -21 34 -60 51 -88 16 -27 36
        -66 45 -85 8 -19 26 -58 39 -85 14 -28 25 -57 25 -65 0 -8 11 -37 25 -65 13
        -27 25 -60 25 -71 0 -12 12 -66 26 -120 24 -92 26 -114 26 -309 0 -164 -3
        -222 -16 -265 -9 -30 -23 -88 -31 -128 -8 -40 -24 -90 -35 -112 -11 -21 -20
        -45 -20 -51 0 -13 -50 -125 -75 -169 -8 -14 -24 -43 -35 -65 -135 -261 -449
        -590 -749 -784 -28 -18 -67 -54 -86 -79 l-35 -45 0 -394 c0 -253 -4 -401 -10
        -414 -18 -32 -29 -28 -145 51 -12 8 -44 28 -71 45 -27 16 -51 33 -52 37 -2 5
        -20 18 -40 29 -21 11 -55 32 -78 47 -22 15 -56 37 -75 49 -19 12 -47 31 -64
        43 -81 56 -197 129 -247 154 l-56 28 -53 -20 c-30 -11 -79 -23 -109 -27 -30
        -4 -77 -16 -105 -27 -27 -11 -88 -24 -135 -29 -47 -5 -107 -17 -135 -25 -49
        -16 -188 -30 -564 -59 -172 -13 -218 -13 -395 0 -337 25 -518 44 -576 60 -30
        8 -91 20 -135 26 -43 6 -106 19 -140 29 -33 9 -89 25 -125 35 -159 41 -216 58
        -227 67 -20 16 -15 48 12 90 14 21 36 55 50 76 14 21 25 43 25 49 0 6 6 16 14
        22 8 7 24 31 35 54 12 23 48 85 81 137 33 52 71 115 85 140 14 25 39 65 55 90
        16 25 40 65 54 90 13 25 43 61 66 80 101 85 136 119 190 185 31 39 67 88 79
        110 12 22 25 47 30 55 29 46 71 168 91 260 28 131 35 220 22 285 -31 158 -52
        245 -66 271 -8 16 -29 60 -48 99 -18 38 -53 97 -77 130 -43 58 -196 215 -211
        215 -4 0 -20 11 -36 25 -16 14 -38 28 -49 31 -11 4 -31 14 -45 24 -14 10 -36
        21 -50 25 -14 4 -47 18 -75 30 -28 13 -110 33 -186 45 -121 20 -147 21 -225
        11 -143 -18 -236 -38 -279 -60 -21 -12 -46 -21 -55 -21 -8 0 -35 -14 -59 -30
        -24 -17 -50 -30 -57 -30 -28 0 -225 -178 -281 -255 -12 -16 -34 -50 -48 -75
        -14 -25 -29 -52 -35 -60 -16 -26 -70 -158 -70 -172 0 -8 -9 -48 -20 -89 -27
        -103 -35 -222 -21 -302 10 -58 9 -80 -10 -173 -11 -58 -27 -120 -34 -137 -7
        -18 -18 -61 -25 -97 -6 -36 -19 -87 -29 -115 -10 -27 -22 -72 -26 -100 -18
        -125 -57 -148 -125 -72 -94 104 -229 291 -264 367 -9 19 -23 46 -31 60 -27 48
        -75 157 -75 171 0 8 -9 32 -20 54 -11 21 -25 66 -31 99 -6 34 -20 95 -31 136
        -18 64 -21 103 -21 266 1 191 12 273 63 449 27 92 88 241 121 295 5 8 19 33
        30 55 99 196 352 485 569 652 111 85 166 125 230 165 36 22 76 48 90 58 54 37
        336 182 379 195 14 4 45 18 69 31 25 13 51 24 59 24 7 0 35 11 61 24 26 13 65
        27 87 30 22 4 54 16 70 26 17 10 53 21 80 25 28 4 69 16 93 26 24 10 71 23
        105 29 34 6 89 19 122 30 33 10 85 21 115 25 30 3 97 15 148 25 51 11 122 23
        157 26 53 6 71 12 102 39 37 32 38 35 38 98 0 64 -1 66 -40 101 -36 31 -46 35
        -95 35 -30 -1 -80 -7 -110 -15z m3278 -586 c9 -9 12 -89 12 -299 l0 -287 -34
        -29 c-19 -17 -50 -33 -73 -36 -22 -4 -61 -16 -86 -27 -25 -11 -72 -25 -104
        -31 -32 -6 -69 -17 -83 -25 -14 -8 -56 -23 -95 -33 -72 -20 -136 -40 -215 -67
        -25 -9 -72 -23 -105 -31 -33 -8 -80 -23 -105 -34 -25 -11 -69 -24 -99 -29 -30
        -6 -65 -17 -78 -25 -13 -9 -49 -21 -80 -26 -32 -6 -73 -19 -93 -29 -53 -27
        -134 -40 -162 -26 -23 12 -23 12 -26 276 -1 146 0 274 2 286 4 14 30 31 90 57
        47 20 92 37 100 37 9 0 44 11 78 24 88 33 186 66 233 78 22 6 60 19 85 29 25
        11 72 25 105 33 33 8 80 23 105 35 25 11 53 21 63 21 10 0 35 9 57 20 22 11
        63 25 92 31 29 6 69 19 88 29 19 10 59 23 88 29 29 6 63 18 76 26 42 28 145
        42 164 23z m-3938 -1518 c213 -47 383 -184 487 -390 18 -36 33 -72 33 -81 0
        -9 9 -42 20 -74 25 -73 27 -215 4 -300 -9 -33 -20 -76 -25 -95 -30 -121 -194
        -330 -259 -330 -14 0 -52 14 -85 30 -33 16 -67 30 -75 30 -8 0 -29 8 -45 19
        -17 10 -48 24 -70 31 -22 7 -54 21 -71 31 -17 11 -38 19 -45 19 -8 0 -41 14
        -74 30 -33 16 -67 30 -75 30 -8 0 -34 11 -57 24 -23 13 -57 27 -75 31 -18 4
        -51 18 -73 30 -22 12 -53 26 -69 29 -17 4 -41 15 -55 25 -14 10 -42 22 -61 26
        -19 4 -53 18 -75 30 -22 13 -55 26 -72 30 -40 8 -69 43 -77 93 -13 77 34 282
        80 349 13 20 24 42 24 49 0 16 99 135 147 177 48 42 95 76 117 84 10 3 40 17
        65 31 25 13 93 35 151 48 117 26 171 25 310 -6z m3844 -540 c101 -34 116 -61
        81 -137 -46 -101 -183 -187 -353 -222 -128 -27 -167 -26 -273 2 -140 38 -178
        89 -123 169 59 85 177 151 344 192 124 30 230 29 324 -4z m-4636 -590 c35 -17
        68 -30 74 -30 8 0 81 -32 183 -80 22 -11 54 -22 70 -26 17 -4 48 -17 71 -30
        22 -13 47 -24 55 -24 8 0 41 -14 74 -30 33 -16 67 -30 75 -30 8 0 33 -12 55
        -25 22 -14 46 -25 54 -25 23 0 150 -64 156 -79 3 -7 -6 -32 -21 -55 -86 -137
        -107 -168 -119 -172 -15 -6 -155 39 -189 61 -12 7 -39 18 -61 25 -22 7 -52 21
        -67 31 -14 11 -35 19 -46 19 -10 0 -39 11 -63 23 -24 13 -62 30 -84 37 -22 7
        -54 21 -71 31 -17 11 -38 19 -45 19 -8 0 -41 14 -74 30 -33 16 -66 30 -74 30
        -16 0 -123 59 -134 74 -4 6 -5 20 -2 31 3 11 10 45 16 75 16 90 18 96 40 123
        26 34 49 34 127 -3z m2935 -2 c29 -12 60 -28 70 -36 35 -31 14 -112 -45 -170
        -47 -46 -109 -92 -123 -92 -7 0 -32 -11 -57 -24 -76 -40 -279 -58 -403 -35
        -64 12 -131 50 -141 81 -13 41 6 83 59 135 68 66 125 97 252 136 66 21 102 25
        208 26 110 1 135 -2 180 -21z m-3099 -543 c26 -14 52 -25 59 -25 7 0 39 -14
        72 -30 33 -16 67 -30 76 -30 9 0 32 -11 51 -24 19 -13 52 -26 74 -30 21 -4 57
        -19 80 -32 22 -13 46 -24 53 -24 7 0 40 -13 74 -28 34 -16 86 -39 114 -52 29
        -13 60 -31 69 -41 15 -17 14 -21 -9 -61 -14 -24 -37 -64 -51 -90 -14 -26 -30
        -49 -36 -53 -6 -3 -17 -21 -25 -38 -9 -18 -31 -57 -50 -87 -19 -30 -46 -75
        -60 -100 -14 -25 -39 -65 -55 -90 -16 -25 -40 -65 -54 -90 -37 -68 -68 -94
        -106 -86 -18 3 -44 14 -58 25 -15 10 -43 22 -62 26 -19 4 -53 18 -75 30 -22
        12 -53 26 -69 29 -17 4 -41 15 -55 25 -14 10 -42 22 -61 26 -19 4 -53 18 -75
        30 -22 12 -52 25 -67 29 -46 11 -52 36 -33 139 9 50 25 111 34 136 10 25 21
        69 25 96 4 28 18 82 32 122 13 39 24 83 24 97 0 15 11 59 25 98 14 39 25 79
        25 88 0 45 46 51 114 15z m-273 -1076 c41 -17 94 -38 119 -47 25 -8 57 -24 72
        -34 14 -10 34 -18 44 -18 10 0 41 -11 69 -25 27 -13 67 -31 88 -39 44 -18 48
        -41 15 -95 -38 -60 -42 -67 -67 -112 -60 -109 -98 -130 -165 -90 -17 10 -49
        24 -71 31 -22 7 -53 21 -70 31 -16 11 -36 19 -44 19 -18 0 -158 67 -166 79
        -15 25 47 279 78 319 13 17 15 16 98 -19z"></path>
        <path d="M1896 5550 c-48 -42 -68 -105 -56 -173 5 -29 14 -110 18 -182 8 -117
        12 -134 36 -170 29 -43 49 -52 109 -54 44 -1 89 20 111 51 34 48 12 371 -31
        469 -40 90 -122 115 -187 59z"></path>
        <path d="M2667 5390 c-39 -34 -90 -117 -102 -165 -3 -16 -12 -37 -20 -45 -7
        -8 -18 -33 -25 -55 -7 -22 -20 -54 -31 -72 -23 -41 -33 -93 -24 -131 7 -34 97
        -102 135 -102 12 0 45 17 71 37 37 28 53 48 65 85 8 26 19 50 24 53 5 3 16 28
        26 57 9 28 25 65 35 82 10 17 25 61 34 98 17 66 17 68 -5 113 -25 52 -41 63
        -103 71 -39 6 -48 3 -80 -26z"></path>
        <path d="M3360 4950 c-14 -11 -30 -20 -37 -20 -7 0 -27 -13 -45 -28 -18 -16
        -64 -50 -101 -77 -110 -77 -174 -140 -181 -178 -10 -51 4 -95 40 -134 34 -35
        35 -36 95 -29 43 4 68 12 83 27 23 22 85 71 141 109 20 14 54 40 77 58 22 17
        44 32 48 32 9 0 70 104 70 120 0 22 -54 90 -91 114 -46 31 -66 32 -99 6z"></path>
    </g>
</svg>