<?xml version="1.0" encoding="UTF-8"?>
<svg enable-background="new 0 0 512 512" version="1.1" viewBox="0 0 512 512" xml:space="preserve" xmlns="http://www.w3.org/2000/svg">

	
		<path d="m293.21 0.013c-14.488-1e-3 -27.235 5.893-37.21 17.123-9.977-11.23-22.722-17.124-37.21-17.124-29.837 0-53.209 24.331-53.209 55.391 0 32.169 24.994 53.121 59.586 82.117 6.706 5.621 13.639 11.434 21.009 17.82 2.819 2.443 6.321 3.665 9.824 3.665 3.502 0 7.005-1.222 9.824-3.665 6.71-5.816 13.04-11.158 19.162-16.325 35.126-29.647 61.433-51.771 61.433-83.611 0-31.06-23.372-55.391-53.209-55.391zm-27.574 116.08c-3.15 2.659-6.354 5.363-9.645 8.161-3.956-3.352-7.79-6.566-11.553-9.721-32.106-26.913-48.859-41.765-48.859-59.127 0-14.239 10.196-25.393 23.21-25.393 16.106 0 22.334 19.85 22.766 21.295 1.744 6.573 7.641 11.151 14.444 11.151 6.804 0 12.7-4.579 14.444-11.151 0.431-1.445 6.659-21.295 22.766-21.295 13.014 1e-3 23.21 11.154 23.21 25.394 1e-3 17.436-19.216 34.046-50.783 60.686z"/>
	


	
		<path d="m507.45 151.59c14.176-38.948-5.869-81.947-44.823-96.125-38.859-14.143-81.98 5.964-96.124 44.823-7.3 20.056-5.801 41.833 4.213 60.779-56.151 3.826-100.63 44.432-112.23 93.016l-0.47 1.972c-2.049-0.068-1.967-0.069-4.039 0-12.802-53.675-59.052-91.332-112.7-94.987 10.014-18.941 11.515-40.722 4.214-60.78-14.143-38.859-57.263-58.967-96.124-44.823-38.947 14.176-59.001 57.17-44.823 96.124 7.563 20.777 23.41 36.187 42.458 43.874-39.086 37.897-48.475 96.175-25.695 143.48l78.734 164.52c2.493 5.209 7.755 8.525 13.529 8.525h284.84c5.775 0 11.037-3.315 13.529-8.525l78.719-164.49c22.937-47.637 13.172-105.85-25.681-143.52 19.051-7.687 34.9-23.097 42.461-43.872zm-251.45 134.41c16.541 0 29.999 13.457 29.999 29.999s-13.457 29.999-29.999 29.999-29.999-13.457-29.999-29.999 13.457-29.999 29.999-29.999zm-223.26-144.67c-8.506-23.37 3.522-49.167 26.895-57.674 23.463-8.54 49.201 3.615 57.674 26.895 8.506 23.37-3.522 49.167-26.895 57.674-23.368 8.506-49.167-3.523-57.674-26.895zm90.287 340.67-74.67-156.03c-24.079-50.008 0.466-110.68 52.317-129.55 52.094-18.96 110 11.313 123.68 64.741l0.811 3.403c-14.665 8.823-25.257 23.736-28.274 41.213l-34.927-25.791c-19.823-14.844-48.048-10.808-62.952 9.02-14.76 19.674-11.099 47.947 8.967 62.979l81.679 61.497 17.13 68.52h-83.762zm171.5-80.948-20.236 80.947h-36.575l-20.237-80.947c-0.833-3.333-2.786-6.279-5.53-8.345l-85.949-64.712c-6.639-4.973-7.951-14.371-2.995-20.978 4.976-6.619 14.395-7.968 20.999-3.009l0.096 0.072 62.847 46.407c10.87 15.417 28.8 25.517 49.055 25.517s38.185-10.1 49.055-25.517l62.925-46.465c6.628-4.959 16.054-3.62 21.01 2.984 4.965 6.618 3.665 16.007-3.015 21.011l-85.92 64.69c-2.744 2.066-4.696 5.012-5.53 8.345zm169.1-75.049-74.654 156h-83.763l17.13-68.52 81.65-61.475c19.905-14.912 23.927-43.1 8.994-63.003-14.873-19.817-43.127-23.853-62.901-9.054l-34.976 25.827c-3.018-17.477-13.608-32.391-28.274-41.212l0.811-3.403c13.694-53.496 71.654-83.676 123.68-64.741 51.91 18.893 76.371 79.593 52.301 129.58zm15.634-184.67c-8.507 23.37-34.302 35.4-57.674 26.895-23.37-8.507-35.4-34.302-26.895-57.674 8.507-23.37 34.301-35.4 57.674-26.895 23.37 8.506 35.401 34.301 26.895 57.674z"/>
	
















</svg>
