<svg xmlns="http://www.w3.org/2000/svg" height="442.344" width="442.345"><g fill="#0ba5e9"><path d="M295.975 0c37.622 0 68.11 30.495 68.11 68.11 0 37.614-30.488 68.106-68.11 68.106-37.609 0-68.105-30.492-68.105-68.106C227.869 30.495 258.365 0 295.975 0z"/><path d="M148.576 256.536c5.681 0 10.722-2.561 14.183-6.532L277.4 144.44c-22.754-5.521-41.646-20.963-51.824-41.475l-90.567 120.557c-3.338 4.661-5.316 8.725-5.316 14.122 0 10.428 8.464 18.892 18.883 18.892z"/><path d="M93.474 358.007c38.097 29.274 96.661-26.176 98.849-28.292.629-.549 62.4-54.934 91.197-22.723 6.012 6.701 8.524 14.459 7.727 23.712-3.029 34.308-50.674 78.774-68.785 93.009-4.521 3.559-5.306 10.118-1.75 14.644a10.38 10.38 0 008.2 3.987c2.24 0 4.524-.737 6.407-2.217 2.962-2.324 72.25-57.222 76.683-107.575 1.334-15.107-3.021-28.381-12.937-39.465-12.695-14.198-36.695-26.878-78.794-6.668-23.048 11.044-41.072 27.069-42.104 27.987-12.385 11.854-52.203 42.259-72.002 27.054-4.31-3.31-6.524-7.313-6.989-12.595-1.559-18.238 17.721-44.495 27.312-55.483l21.362-7.449s-4.278-.477-14.351-9.506c-9.419-8.464-11.918-17.616-11.918-17.616l-9.614 19.532c-6.847 7.634-36.097 42.193-33.552 72.277.933 11.073 6.138 20.547 15.059 27.387z"/></g></svg>