<svg xmlns="http://www.w3.org/2000/svg" viewBox="0 0 297 297"><g fill="#0ba5e9"><path d="M264.959 35.445C245.582 26.674 187.214.882 187.214.882c-5.152-2.29-11.188.029-13.48 5.184-2.291 5.153.03 11.188 5.184 13.481l33.81 15.028h-54.014v-7.076c0-5.64-4.573-10.212-10.214-10.212s-10.214 4.572-10.214 10.212v7.076H84.272l33.811-15.028c5.153-2.293 7.475-8.327 5.184-13.481-2.291-5.152-8.323-7.474-13.48-5.184 0 0-58.351 26.391-78.017 34.692-.01.004.01-.004 0 0-3.426 1.673-5.827 5.144-5.827 9.21v121.004c0 5.639 4.573 10.211 10.214 10.211h102.13V230.7l-48.861 48.865c-3.986 3.99-3.985 10.456.002 14.443a10.188 10.188 0 007.222 2.99c2.614 0 5.229-.997 7.224-2.992l34.414-34.418v27.197c0 5.64 4.573 10.213 10.214 10.213s10.214-4.573 10.214-10.213V259.59l34.414 34.418a10.183 10.183 0 007.224 2.992c2.613 0 5.228-.997 7.222-2.99 3.987-3.987 3.988-10.453.002-14.443l-48.861-48.865V176h102.129c5.642 0 10.215-4.572 10.215-10.211V44.785c-.003-4.115-2.584-7.747-6.102-9.34zM46.369 155.578V54.998h91.917v100.58H46.369zm204.262 0h-91.917V54.998h91.917v100.58z"/><path d="M63.882 99.254h50.773c5.522 0 10-4.478 10-10 0-5.523-4.478-10-10-10H63.882c-5.522 0-10 4.477-10 10 0 5.522 4.477 10 10 10zM114.654 113.108H63.882c-5.522 0-10 4.477-10 10 0 5.522 4.478 10 10 10h50.773c5.522 0 10-4.477 10-10-.001-5.522-4.478-10-10.001-10zM182.346 99.254h50.772c5.522 0 10-4.478 10-10 0-5.523-4.478-10-10-10h-50.772c-5.523 0-10 4.477-10 10 0 5.522 4.477 10 10 10zM233.118 113.108h-50.772c-5.523 0-10 4.477-10 10 0 5.522 4.477 10 10 10h50.772c5.522 0 10-4.477 10-10 0-5.522-4.477-10-10-10z"/></g></svg>