<svg xmlns="http://www.w3.org/2000/svg" viewBox="0 0 512 512"><g fill="#0ba5e9"><path d="M8.533 17.067h494.933c4.719 0 8.533-3.823 8.533-8.533S508.186 0 503.467 0H8.533C3.823 0 0 3.823 0 8.533s3.823 8.534 8.533 8.534zM315.733 290.133c4.719 0 8.533-3.823 8.533-8.533s-3.814-8.533-8.533-8.533c-23.526 0-42.667 19.14-42.667 42.667 0 23.526 19.14 42.667 42.667 42.667 23.526 0 42.667-19.14 42.667-42.667v-153.6a8.52 8.52 0 00-3.285-6.724 8.501 8.501 0 00-7.313-1.553L211.26 187.989a8.528 8.528 0 00-6.46 8.277v153.6c0 14.114-11.486 25.6-25.6 25.6s-25.6-11.486-25.6-25.6 11.486-25.6 25.6-25.6c4.71 0 8.533-3.823 8.533-8.533s-3.823-8.533-8.533-8.533c-23.526 0-42.667 19.14-42.667 42.667 0 23.526 19.14 42.667 42.667 42.667s42.667-19.14 42.667-42.667V240.58l104.576-27.529c4.557-1.195 7.27-5.871 6.076-10.419a8.54 8.54 0 00-10.428-6.084l-100.224 26.385v-20.002l119.467-29.867v142.669c0 14.114-11.486 25.6-25.6 25.6s-25.6-11.486-25.6-25.6 11.485-25.6 25.599-25.6zM506.726 34.79a8.54 8.54 0 00-6.519 0 8.53 8.53 0 00-2.782 1.852L426.667 107.4V42.667c0-4.71-3.814-8.533-8.533-8.533s-8.533 3.823-8.533 8.533v426.667c0 1.109.222 2.219.657 3.26a8.586 8.586 0 004.617 4.617 8.46 8.46 0 003.26.657 8.463 8.463 0 003.26-.657 8.53 8.53 0 002.782-1.852l70.758-70.758v64.734a8.53 8.53 0 008.533 8.533 8.53 8.53 0 008.533-8.533V42.667a8.463 8.463 0 00-.657-3.26 8.591 8.591 0 00-4.618-4.617zm-80.059 101.743h56.201l-56.201 56.201v-56.201zm0 85.334h56.201l-56.201 56.201v-56.201zm0 85.333h56.201l-56.201 56.201V307.2zm0 141.534v-56.201h56.201l-56.201 56.201zm68.266-73.267h-56.201l56.201-56.201v56.201zm0-85.334h-56.201l56.201-56.201v56.201zm0-85.333h-56.201l56.201-56.201V204.8zm0-85.333h-56.201l56.201-56.201v56.201zM503.467 494.933H8.533c-4.71 0-8.533 3.823-8.533 8.533S3.823 512 8.533 512h494.933c4.719 0 8.533-3.823 8.533-8.533s-3.813-8.534-8.532-8.534zM5.274 477.21c1.041.435 2.15.657 3.26.657s2.219-.222 3.26-.657a8.75 8.75 0 002.782-1.843L85.334 404.6v64.734a8.536 8.536 0 008.533 8.533 8.536 8.536 0 008.533-8.533V42.667a8.463 8.463 0 00-.657-3.26 8.612 8.612 0 00-4.617-4.617 8.54 8.54 0 00-6.519 0 8.75 8.75 0 00-2.782 1.843L17.067 107.4V42.667c0-4.71-3.823-8.533-8.533-8.533S0 37.956 0 42.667v426.667c0 1.109.23 2.219.657 3.26a8.614 8.614 0 004.617 4.616zm80.059-101.743h-56.2l56.201-56.201v56.201zm0-85.334h-56.2l56.201-56.201v56.201zm0-85.333h-56.2l56.201-56.201V204.8zm0-141.534v56.201h-56.2l56.2-56.201zm-68.266 73.267h56.201l-56.201 56.201v-56.201zm0 85.334h56.201l-56.201 56.201v-56.201zm0 85.333h56.201l-56.201 56.201V307.2zm0 85.333h56.201l-56.201 56.201v-56.201z"/></g></svg>