<?xml version="1.0" encoding="UTF-8" standalone="no"?>
<svg
   xmlns:dc="http://purl.org/dc/elements/1.1/"
   xmlns:cc="http://creativecommons.org/ns#"
   xmlns:rdf="http://www.w3.org/1999/02/22-rdf-syntax-ns#"
   xmlns:svg="http://www.w3.org/2000/svg"
   xmlns="http://www.w3.org/2000/svg"
   xml:space="preserve"
   style="enable-background:new 0 0 297 297;"
   viewBox="0 0 297 297"
   y="0px"
   x="0px"
   id="Capa_1"
   version="1.1"><metadata
   id="metadata49"><rdf:RDF><cc:Work
       rdf:about=""><dc:format>image/svg+xml</dc:format><dc:type
         rdf:resource="http://purl.org/dc/dcmitype/StillImage" /><dc:title></dc:title></cc:Work></rdf:RDF></metadata><defs
   id="defs47" />
<g
   style="fill-rule:nonzero"
   id="g12">
	<path
   style="fill-rule:nonzero;fill:#0ba5e9;fill-opacity:1"
   id="path2"
   d="M264.959,35.445c-19.377-8.771-77.745-34.563-77.745-34.563c-5.152-2.29-11.188,0.029-13.48,5.184   c-2.291,5.153,0.03,11.188,5.184,13.481l33.81,15.028h-54.014v-7.076c0-5.64-4.573-10.212-10.214-10.212   c-5.641,0-10.214,4.572-10.214,10.212v7.076H84.272l33.811-15.028c5.153-2.293,7.475-8.327,5.184-13.481   c-2.291-5.152-8.323-7.474-13.48-5.184c0,0-58.351,26.391-78.017,34.692c-0.01,0.004,0.01-0.004,0,0   c-3.426,1.673-5.827,5.144-5.827,9.21v121.004c0,5.639,4.573,10.211,10.214,10.211h102.13v54.701l-48.861,48.865   c-3.986,3.99-3.985,10.456,0.002,14.443c1.996,1.993,4.608,2.99,7.222,2.99c2.614,0,5.229-0.997,7.224-2.992l34.414-34.418v27.197   c0,5.64,4.573,10.213,10.214,10.213c5.641,0,10.214-4.573,10.214-10.213V259.59l34.414,34.418c1.994,1.995,4.61,2.992,7.224,2.992   c2.613,0,5.228-0.997,7.222-2.99c3.987-3.987,3.988-10.453,0.002-14.443l-48.861-48.865V176h102.129   c5.642,0,10.215-4.572,10.215-10.211V44.785C271.058,40.67,268.477,37.038,264.959,35.445z M46.369,155.578V54.998h91.917v100.58   H46.369z M250.631,155.578h-91.917V54.998h91.917V155.578z" />
	<path
   style="fill-rule:nonzero;fill:#0ba5e9;fill-opacity:1"
   id="path4"
   d="M63.882,99.254h50.773c5.522,0,10-4.478,10-10c0-5.523-4.478-10-10-10H63.882c-5.522,0-10,4.477-10,10   C53.882,94.776,58.359,99.254,63.882,99.254z" />
	<path
   style="fill-rule:nonzero;fill:#0ba5e9;fill-opacity:1"
   id="path6"
   d="M114.654,113.108H63.882c-5.522,0-10,4.477-10,10c0,5.522,4.478,10,10,10h50.773c5.522,0,10-4.477,10-10   C124.654,117.586,120.177,113.108,114.654,113.108z" />
	<path
   style="fill-rule:nonzero;fill:#0ba5e9;fill-opacity:1"
   id="path8"
   d="M182.346,99.254h50.772c5.522,0,10-4.478,10-10c0-5.523-4.478-10-10-10h-50.772c-5.523,0-10,4.477-10,10   C172.346,94.776,176.823,99.254,182.346,99.254z" />
	<path
   style="fill-rule:nonzero;fill:#0ba5e9;fill-opacity:1"
   id="path10"
   d="M233.118,113.108h-50.772c-5.523,0-10,4.477-10,10c0,5.522,4.477,10,10,10h50.772c5.522,0,10-4.477,10-10   C243.118,117.586,238.641,113.108,233.118,113.108z" />
</g>
<g
   style="fill-rule:nonzero"
   id="g14">
</g>
<g
   style="fill-rule:nonzero"
   id="g16">
</g>
<g
   style="fill-rule:nonzero"
   id="g18">
</g>
<g
   style="fill-rule:nonzero"
   id="g20">
</g>
<g
   style="fill-rule:nonzero"
   id="g22">
</g>
<g
   style="fill-rule:nonzero"
   id="g24">
</g>
<g
   style="fill-rule:nonzero"
   id="g26">
</g>
<g
   style="fill-rule:nonzero"
   id="g28">
</g>
<g
   style="fill-rule:nonzero"
   id="g30">
</g>
<g
   style="fill-rule:nonzero"
   id="g32">
</g>
<g
   style="fill-rule:nonzero"
   id="g34">
</g>
<g
   style="fill-rule:nonzero"
   id="g36">
</g>
<g
   style="fill-rule:nonzero"
   id="g38">
</g>
<g
   style="fill-rule:nonzero"
   id="g40">
</g>
<g
   style="fill-rule:nonzero"
   id="g42">
</g>
</svg>