<?xml version="1.0" encoding="UTF-8" standalone="no"?>
<svg
   xmlns:dc="http://purl.org/dc/elements/1.1/"
   xmlns:cc="http://creativecommons.org/ns#"
   xmlns:rdf="http://www.w3.org/1999/02/22-rdf-syntax-ns#"
   xmlns:svg="http://www.w3.org/2000/svg"
   xmlns="http://www.w3.org/2000/svg"
   xml:space="preserve"
   style="enable-background:new 0 0 512 512;"
   viewBox="0 0 512 512"
   y="0px"
   x="0px"
   id="Layer_1"
   version="1.1"><metadata
   id="metadata53"><rdf:RDF><cc:Work
       rdf:about=""><dc:format>image/svg+xml</dc:format><dc:type
         rdf:resource="http://purl.org/dc/dcmitype/StillImage" /><dc:title></dc:title></cc:Work></rdf:RDF></metadata><defs
   id="defs51" />
<g
   style="fill:#0ba5e9;fill-opacity:1"
   id="g16">
	<g
   style="fill:#0ba5e9;fill-opacity:1"
   id="g14">
		<g
   style="fill:#0ba5e9;fill-opacity:1"
   id="g12">
			<path
   style="fill:#0ba5e9;fill-opacity:1"
   id="path2"
   d="M8.533,17.067h494.933c4.719,0,8.533-3.823,8.533-8.533S508.186,0,503.467,0H8.533C3.823,0,0,3.823,0,8.533     S3.823,17.067,8.533,17.067z" />
			<path
   style="fill:#0ba5e9;fill-opacity:1"
   id="path4"
   d="M315.733,290.133c4.719,0,8.533-3.823,8.533-8.533s-3.814-8.533-8.533-8.533c-23.526,0-42.667,19.14-42.667,42.667     c0,23.526,19.14,42.667,42.667,42.667c23.526,0,42.667-19.14,42.667-42.667v-153.6c0-2.628-1.212-5.112-3.285-6.724     c-2.074-1.621-4.77-2.193-7.313-1.553L211.26,187.989c-3.797,0.947-6.46,4.361-6.46,8.277v153.6c0,14.114-11.486,25.6-25.6,25.6     s-25.6-11.486-25.6-25.6s11.486-25.6,25.6-25.6c4.71,0,8.533-3.823,8.533-8.533s-3.823-8.533-8.533-8.533     c-23.526,0-42.667,19.14-42.667,42.667c0,23.526,19.14,42.667,42.667,42.667s42.667-19.14,42.667-42.667V240.58l104.576-27.529     c4.557-1.195,7.27-5.871,6.076-10.419c-1.203-4.565-5.871-7.279-10.428-6.084l-100.224,26.385v-20.002l119.467-29.867v142.669     c0,14.114-11.486,25.6-25.6,25.6s-25.6-11.486-25.6-25.6S301.619,290.133,315.733,290.133z" />
			<path
   style="fill:#0ba5e9;fill-opacity:1"
   id="path6"
   d="M506.726,34.79c-2.082-0.862-4.437-0.862-6.519,0c-1.05,0.435-1.988,1.058-2.782,1.852l-70.758,70.758V42.667     c0-4.71-3.814-8.533-8.533-8.533s-8.533,3.823-8.533,8.533v426.667c0,1.109,0.222,2.219,0.657,3.26     c0.87,2.082,2.526,3.746,4.617,4.617c1.041,0.435,2.15,0.657,3.26,0.657c1.109,0,2.219-0.222,3.26-0.657     c1.05-0.435,1.988-1.058,2.782-1.852l70.758-70.758v64.734c0,4.71,3.814,8.533,8.533,8.533c4.719,0,8.533-3.823,8.533-8.533     V42.667c0-1.109-0.222-2.219-0.657-3.26C510.473,37.325,508.817,35.661,506.726,34.79z M426.667,136.533h56.201l-56.201,56.201     V136.533z M426.667,221.867h56.201l-56.201,56.201V221.867z M426.667,307.2h56.201l-56.201,56.201V307.2z M426.667,448.734     v-56.201h56.201L426.667,448.734z M494.933,375.467h-56.201l56.201-56.201V375.467z M494.933,290.133h-56.201l56.201-56.201     V290.133z M494.933,204.8h-56.201l56.201-56.201V204.8z M494.933,119.467h-56.201l56.201-56.201V119.467z" />
			<path
   style="fill:#0ba5e9;fill-opacity:1"
   id="path8"
   d="M503.467,494.933H8.533c-4.71,0-8.533,3.823-8.533,8.533S3.823,512,8.533,512h494.933c4.719,0,8.533-3.823,8.533-8.533     S508.186,494.933,503.467,494.933z" />
			<path
   style="fill:#0ba5e9;fill-opacity:1"
   id="path10"
   d="M5.274,477.21c1.041,0.435,2.15,0.657,3.26,0.657s2.219-0.222,3.26-0.657c1.041-0.435,1.988-1.058,2.782-1.843     l70.758-70.767v64.734c0,4.71,3.823,8.533,8.533,8.533c4.71,0,8.533-3.823,8.533-8.533V42.667c0-1.109-0.222-2.219-0.657-3.26     c-0.87-2.082-2.534-3.746-4.617-4.617c-2.082-0.862-4.437-0.862-6.519,0c-1.041,0.435-1.988,1.058-2.782,1.843l-70.758,70.767     V42.667c0-4.71-3.823-8.533-8.533-8.533S0,37.956,0,42.667v426.667c0,1.109,0.23,2.219,0.657,3.26     C1.527,474.675,3.191,476.339,5.274,477.21z M85.333,375.467H29.133l56.201-56.201V375.467z M85.333,290.133H29.133     l56.201-56.201V290.133z M85.333,204.8H29.133l56.201-56.201V204.8z M85.333,63.266v56.201H29.133L85.333,63.266z      M17.067,136.533h56.201l-56.201,56.201V136.533z M17.067,221.867h56.201l-56.201,56.201V221.867z M17.067,307.2h56.201     l-56.201,56.201V307.2z M17.067,392.533h56.201l-56.201,56.201V392.533z" />
		</g>
	</g>
</g>
<g
   id="g18">
</g>
<g
   id="g20">
</g>
<g
   id="g22">
</g>
<g
   id="g24">
</g>
<g
   id="g26">
</g>
<g
   id="g28">
</g>
<g
   id="g30">
</g>
<g
   id="g32">
</g>
<g
   id="g34">
</g>
<g
   id="g36">
</g>
<g
   id="g38">
</g>
<g
   id="g40">
</g>
<g
   id="g42">
</g>
<g
   id="g44">
</g>
<g
   id="g46">
</g>
</svg>